<?xml version="1.0" encoding="UTF-8" standalone="no"?>
<!-- Generator: Adobe Illustrator 15.1.0, SVG Export Plug-In . SVG Version: 6.00 Build 0)  -->

<svg
        xmlns:dc="http://purl.org/dc/elements/1.1/"
        xmlns:cc="http://creativecommons.org/ns#"
        xmlns:rdf="http://www.w3.org/1999/02/22-rdf-syntax-ns#"
        xmlns:svg="http://www.w3.org/2000/svg"
        xmlns="http://www.w3.org/2000/svg"
        xmlns:sodipodi="http://sodipodi.sourceforge.net/DTD/sodipodi-0.dtd"
        xmlns:inkscape="http://www.inkscape.org/namespaces/inkscape"
        version="1.1"
        id="Layer_1"
        x="0px"
        y="0px"
        width="132.97023"
        height="42.343975"
        viewBox="0 0 132.97023 42.343975"
        enable-background="new 0 0 612 792"
        xml:space="preserve"
        sodipodi:docname="htmap-logo.svg"
        inkscape:version="0.92.4 (5da689c313, 2019-01-14)"><metadata
   id="metadata3979"><rdf:RDF><cc:Work
       rdf:about=""><dc:format>image/svg+xml</dc:format><dc:type
        rdf:resource="http://purl.org/dc/dcmitype/StillImage"/><dc:title/></cc:Work></rdf:RDF></metadata>
    <defs
            id="defs3977"/>
    <sodipodi:namedview
            pagecolor="#ffffff"
            bordercolor="#666666"
            borderopacity="1"
            objecttolerance="10"
            gridtolerance="10"
            guidetolerance="10"
            inkscape:pageopacity="0"
            inkscape:pageshadow="2"
            inkscape:window-width="1920"
            inkscape:window-height="1057"
            id="namedview3975"
            showgrid="false"
            inkscape:zoom="5.6568543"
            inkscape:cx="24.675327"
            inkscape:cy="26.390097"
            inkscape:window-x="1912"
            inkscape:window-y="-8"
            inkscape:window-maximized="1"
            inkscape:current-layer="Layer_1"/>


    <g
            aria-label="M"
            transform="scale(1.0223304,0.97815735)"
            style="font-style:normal;font-variant:normal;font-weight:bold;font-stretch:normal;font-size:48.10800171px;line-height:125%;font-family:'Liberation Sans';-inkscape-font-specification:'Liberation Sans, Bold';font-variant-ligatures:normal;font-variant-caps:normal;font-variant-numeric:normal;font-feature-settings:normal;text-align:start;letter-spacing:0px;word-spacing:0px;writing-mode:lr-tb;text-anchor:start;fill:#000000;fill-opacity:1;stroke:none;stroke-width:2.31243324px;stroke-linecap:butt;stroke-linejoin:miter;stroke-opacity:1"
            id="text8047"><path
     id="path4753"
     style="font-style:normal;font-variant:normal;font-weight:bold;font-stretch:normal;font-size:48.10800171px;font-family:'Liberation Sans';-inkscape-font-specification:'Liberation Sans, Bold';font-variant-ligatures:normal;font-variant-caps:normal;font-variant-numeric:normal;font-feature-settings:normal;text-align:start;writing-mode:lr-tb;text-anchor:start;stroke-width:2.31243324px"
     d="M 72.380994,33.102028 V 13.041367 q 0,-1.198002 0.02349,-2.466475 0.04698,-1.2684724 0.09396,-2.325533 0.07047,-1.2449824 0.117451,-2.4194942 -0.493295,1.8557286 -0.939609,3.5235353 -0.187922,0.7047069 -0.399334,1.4563949 -0.211412,0.751687 -0.422824,1.456394 -0.187922,0.704707 -0.375844,1.315453 -0.187922,0.610747 -0.328863,1.057061 l -5.96652,18.463325 h -4.93295 L 53.283433,14.638703 q -0.140942,-0.446314 -0.328864,-1.057061 -0.164431,-0.610746 -0.375843,-1.315453 -0.187922,-0.704707 -0.399334,-1.456394 -0.211413,-0.751688 -0.422825,-1.4563949 -0.469804,-1.6678067 -0.98659,-3.5235353 0.07047,1.3624337 0.140942,2.6778868 0.04698,1.1275313 0.09396,2.3725134 0.04698,1.244983 0.04698,2.161102 v 20.060661 h -6.15444 V 0.00428648 h 9.278643 L 60.095601,18.514592 q 0.234902,0.728197 0.493295,1.785258 0.281883,1.05706 0.540275,2.04365 0.281883,1.151022 0.610746,2.396004 0.328864,-1.221492 0.634237,-2.349023 0.140941,-0.493295 0.281882,-1.01008 0.140942,-0.516786 0.281883,-1.010081 0.140942,-0.493295 0.281883,-0.939609 0.140942,-0.446314 0.258393,-0.798668 L 69.303773,0.00428648 h 9.231662 V 33.102028 Z" /></g>

    <polygon
            points="208.832,399.172 216.286,399.172 216.286,386.303 228.888,386.303 228.888,399.172 236.342,399.172 236.342,373.633 228.888,373.633 228.888,379.667 216.286,379.667 216.286,366.797 208.832,366.797 "
            id="polygon3904"
            transform="translate(-208.832,-366.793)"/>
    <polyline
            style="fill:#d31245"
            points="228.887,366.797 228.887,373.631 241.634,373.631 241.634,399.172 249.457,399.172   249.457,373.655 262.27,373.655 262.27,366.797 "
            id="polyline3916"
            transform="translate(-208.832,-366.793)"/>


    <text
            xml:space="preserve"
            style="font-style:normal;font-variant:normal;font-weight:100;font-stretch:normal;font-size:40px;line-height:125%;font-family:Borealis;-inkscape-font-specification:'Borealis, Thin';text-align:start;letter-spacing:0px;word-spacing:0px;writing-mode:lr-tb;text-anchor:start;fill:#000000;fill-opacity:1;stroke:none;stroke-width:1px;stroke-linecap:butt;stroke-linejoin:miter;stroke-opacity:1"
            x="69.081146"
            y="8.0226736"
            id="text7915"><tspan
     sodipodi:role="line"
     x="69.081146"
     y="42.434448"
     id="tspan7917" /></text>


    <g
            transform="matrix(1.3333333,0,0,-1.3333333,10.64535,132.2343)"
            inkscape:label="ink_ext_XXXXXX"
            id="g7929"/>
    <g
            aria-label="ap"
            style="font-style:normal;font-variant:normal;font-weight:normal;font-stretch:normal;font-size:48.10800171px;line-height:125%;font-family:'Liberation Sans';-inkscape-font-specification:'Liberation Sans, Normal';font-variant-ligatures:normal;font-variant-caps:normal;font-variant-numeric:normal;font-feature-settings:normal;text-align:start;letter-spacing:0px;word-spacing:0px;writing-mode:lr-tb;text-anchor:start;fill:#000000;fill-opacity:1;stroke:none;stroke-width:1px;stroke-linecap:butt;stroke-linejoin:miter;stroke-opacity:1"
            id="text8051"><path
     id="path4765"
     style=""
     d="m 132.97023,19.534958 q 0,2.889299 -0.4698,5.332283 -0.46981,2.442985 -1.57385,4.204752 -1.08055,1.761768 -2.8893,2.771848 -1.78526,0.98659 -4.41616,0.98659 -2.72487,0 -4.76852,-1.03357 -2.04365,-1.033571 -3.1242,-3.382594 h -0.11745 q 0.0235,0.04698 0.0235,0.422824 0.0235,0.375844 0.0235,0.939609 0.0235,0.563766 0.0235,1.268473 0.0235,0.681217 0.0235,1.362434 v 9.936369 h -4.22824 V 12.135534 q 0,-0.916119 -0.0235,-1.761768 0,-0.8456484 -0.0235,-1.5268652 -0.0235,-0.7047071 -0.047,-1.198002 -0.0235,-0.493295 -0.047,-0.7047071 h 4.0873 q 0.0235,0.070471 0.047,0.493295 0.047,0.4228242 0.0705,1.0335703 0.047,0.5872559 0.0705,1.2684727 0.047,0.6812173 0.047,1.2919633 h 0.094 q 0.58726,-1.2214926 1.33894,-2.067141 0.75169,-0.8691388 1.71479,-1.4094142 0.9631,-0.5637656 2.13761,-0.798668 1.198,-0.2583925 2.67789,-0.2583925 2.6309,0 4.41616,0.9396094 1.80875,0.9396094 2.8893,2.6543963 1.10404,1.691297 1.57385,4.110791 0.4698,2.396004 0.4698,5.332284 z m -4.43965,0.09396 q 0,-2.349024 -0.28189,-4.181262 -0.28188,-1.832238 -0.98659,-3.100711 -0.68121,-1.268473 -1.83223,-1.926199 -1.15103,-0.6577271 -2.8893,-0.6577271 -1.40942,0 -2.6544,0.3993341 -1.24498,0.399334 -2.18459,1.526865 -0.91612,1.127532 -1.4564,3.124202 -0.54027,1.973179 -0.54027,5.144361 0,2.701377 0.44631,4.580596 0.44632,1.855728 1.29197,3.00675 0.86913,1.151022 2.13761,1.667807 1.26847,0.493295 2.91279,0.493295 1.76176,0 2.91279,-0.681217 1.17451,-0.681217 1.85572,-1.97318 0.70471,-1.291963 0.98659,-3.147691 0.28189,-1.879219 0.28189,-4.275223 z M 91.181104,32.830431 q -3.828909,0 -5.755108,-2.02016 -1.926199,-2.020161 -1.926199,-5.543696 0,-2.513455 0.939609,-4.110791 0.9631,-1.620826 2.489965,-2.536945 1.550356,-0.91612 3.523535,-1.268473 1.97318,-0.352354 4.016831,-0.399334 l 5.708123,-0.09396 v -1.385924 q 0,-1.573846 -0.32886,-2.677887 -0.328863,-1.104041 -1.01008,-1.785258 -0.681217,-0.681216 -1.714787,-0.986589 -1.01008,-0.3288638 -2.396004,-0.3288638 -1.221492,0 -2.208082,0.1879219 -0.98659,0.1644319 -1.714787,0.6342359 -0.728197,0.446315 -1.174512,1.244983 -0.446314,0.775178 -0.587256,1.97318 l -4.416164,-0.399334 q 0.234902,-1.503375 0.892629,-2.748358 0.657727,-1.2684725 1.855729,-2.1845917 1.221492,-0.9161192 3.03024,-1.4094141 1.832238,-0.5167852 4.416164,-0.5167852 4.792008,0 7.2115,2.2080821 2.4195,2.1845919 2.4195,6.3423639 v 10.946449 q 0,1.879219 0.49329,2.842319 0.4933,0.939609 1.87922,0.939609 0.35235,0 0.70471,-0.04698 0.35235,-0.04698 0.68121,-0.117452 v 2.630907 q -0.79866,0.187922 -1.59733,0.281883 -0.77518,0.09396 -1.66781,0.09396 -1.198,0 -2.06714,-0.305373 -0.84565,-0.328864 -1.38592,-0.9631 -0.54028,-0.657727 -0.82216,-1.597336 -0.28188,-0.9631 -0.35235,-2.231572 h -0.14095 q -0.681213,1.221492 -1.503371,2.208082 -0.798668,0.98659 -1.879219,1.691297 -1.080551,0.681216 -2.466475,1.05706 -1.362434,0.375844 -3.147691,0.375844 z m 0.963099,-3.171182 q 2.02016,0 3.523536,-0.728197 1.526865,-0.751688 2.513455,-1.902709 1.01008,-1.151022 1.503375,-2.513455 0.493291,-1.362434 0.493291,-2.607416 v -2.090631 l -4.627573,0.09396 q -1.550355,0.02349 -2.959769,0.234902 -1.385924,0.187922 -2.442985,0.775178 -1.05706,0.587256 -1.691297,1.644316 -0.610746,1.057061 -0.610746,2.771848 0,2.067141 1.104041,3.194672 1.127532,1.127531 3.194672,1.127531 z" /></g>


    <path
            style="fill:#d31245;fill-opacity:1;fill-rule:evenodd;stroke:none;stroke-width:1px;stroke-linecap:butt;stroke-linejoin:miter;stroke-opacity:1"
            d="M 53.16179,0.004 55.40834,0 57.68401,6.87309 53.1043,6.86219 Z"
            id="path3962"
            inkscape:connector-curvature="0"
            sodipodi:nodetypes="ccccc"/></svg>
